<?xml version="1.0" encoding="utf-8"?>
<!-- Generator: Adobe Illustrator 18.0.0, SVG Export Plug-In . SVG Version: 6.00 Build 0)  -->
<!DOCTYPE svg PUBLIC "-//W3C//DTD SVG 1.1//EN" "http://www.w3.org/Graphics/SVG/1.1/DTD/svg11.dtd">
<svg version="1.1" id="Layer_1" xmlns="http://www.w3.org/2000/svg" xmlns:xlink="http://www.w3.org/1999/xlink" x="0px" y="0px"
	 viewBox="0 0 1000 1000" enable-background="new 0 0 1000 1000" xml:space="preserve">
<g>
	<g>
		<path fill="#000000" d="M522.8,281h125c0,0,112.5,18.8,100,125c0,0-6.3,56.3,100,93.8s131.2,175,131.2,175s25,143.8-56.2,225
			c-25,25-56.3,50-75,62.5c-37.5,25-75,31.3-118.8,31.3H522.8V281z"/>
	</g>
	<g>
		<path fill="#59F9FF" d="M722.8,649.8c18.8,37.5-56.3,93.8-56.3,93.8c-112.5,100-81.3,175-81.3,175c31.3,75,100,43.8,100,43.8
			C866.5,874.8,791.5,706,791.5,706L510.3,6v6.3L722.8,649.8z"/>
	</g>
	<g>
		<rect x="310.3" y="860.1" fill="#FFFFFF" width="191.9" height="135.5"/>
		<rect x="314.1" y="656.7" fill="#FFFFFF" width="188.1" height="172.5"/>
		<rect x="310.3" y="281" fill="#FFFFFF" width="190.9" height="147.8"/>
		<rect x="313.1" y="447.4" fill="#FFFFFF" width="188.1" height="184.8"/>
		<g>
			<g>
				<g>
					<rect x="54" y="422.7" fill="#4C9AFF" width="231.3" height="43.1"/>
				</g>
			</g>
			<g>
				<g>
					<rect x="116.5" y="545.9" fill="#F652F9" width="162.5" height="43.1"/>
				</g>
			</g>
			<g>
				<g>
					<rect x="16.5" y="675.3" fill="#CFFA53" width="187.5" height="43.1"/>
				</g>
			</g>
			<g>
				<g>
					<rect x="235.3" y="675.3" fill="#CFFA53" width="50" height="43.1"/>
				</g>
			</g>
			<g>
				<g>
					<rect x="47.8" y="804.7" fill="#59F9FF" width="237.5" height="43.1"/>
				</g>
			</g>
			<g>
				<g>
					<rect x="110.3" y="927.9" fill="#80E340" width="87.5" height="43.1"/>
				</g>
			</g>
			<g>
				<g>
					<rect x="241.5" y="927.9" fill="#80E340" width="43.8" height="43.1"/>
				</g>
			</g>
			<g>
				<g>
					<rect x="135.3" y="299.5" fill="#2EBBB5" width="62.5" height="43.1"/>
				</g>
			</g>
			<g>
				<g>
					<rect x="241.5" y="299.5" fill="#2EBBB5" width="43.8" height="43.1"/>
				</g>
			</g>
		</g>
		<g>
			<g>
				<polygon points="391.5,632.2 310.3,632.2 310.3,447.4 385.3,447.4 385.3,447.4 316.5,447.4 316.5,626 391.5,626 				"/>
			</g>
			<g>
				<polygon points="391.5,835.4 310.3,835.4 310.3,656.8 385.3,656.8 385.3,656.8 316.5,656.8 316.5,835.4 				"/>
			</g>
			<g>
				<polygon points="391.5,995.6 310.3,995.6 310.3,860.1 385.3,860.1 385.3,860.1 316.5,860.1 316.5,989.5 391.5,995.6 504,989.5 
					504,281 316.5,287.2 316.5,428.8 391.5,428.8 391.5,428.8 310.3,428.8 310.3,281 504,281 504,995.6 				"/>
			</g>
		</g>
		<g>
			<rect x="385.3" y="589" width="118.8" height="104.7"/>
		</g>
		<g>
			<rect x="385.3" y="792.4" width="118.8" height="104.7"/>
		</g>
		<g>
			<rect x="385.3" y="385.8" width="118.8" height="104.8"/>
		</g>
		<g>
			<rect x="385.3" y="835.4" width="0" height="24.6"/>
		</g>
		<g>
			<rect x="385.3" y="632.2" width="0" height="24.6"/>
		</g>
		<g>
			<rect x="385.3" y="428.8" width="0" height="18.5"/>
		</g>
		<rect x="312.6" y="281" width="192.2" height="6.1"/>
		<rect x="498.6" y="281" width="6.2" height="714.9"/>
		<rect x="314.1" y="989.5" width="188.1" height="6.2"/>
		<rect x="314.1" y="860.4" width="188.1" height="6.2"/>
		<rect x="314.1" y="829.2" width="188.1" height="6.2"/>
		<rect x="314.1" y="656.7" width="188.1" height="6.2"/>
		<rect x="313.1" y="447.4" width="188.1" height="6.2"/>
		<rect x="313.1" y="422.7" width="188.1" height="6.2"/>
	</g>
</g>
</svg>
