<?xml version="1.0" encoding="utf-8"?><!-- Svg Vector Icons : http://www.onlinewebfonts.com/icon -->
<!DOCTYPE svg PUBLIC "-//W3C//DTD SVG 1.1//EN" "http://www.w3.org/Graphics/SVG/1.1/DTD/svg11.dtd">
<svg xmlns:xlink="http://www.w3.org/1999/xlink" enable-background="new 0 0 1000 1000" version="1.1"
  viewBox="0 0 1000 1000" x="0px" xmlns="http://www.w3.org/2000/svg" y="0px"
  xml:space="preserve">
<!--metadata> Svg Vector Icons : http://www.onlinewebfonts.com/icon </metadata-->
  <g><g transform="translate(0.000000,511.000000) scale(0.100000,-0.100000)"><path d="M3319.2,4916.2c-93.8-85.2-289.8-724.6-1346.8-4338.8C1286.1-1754,719.3-3723,706.5-3799.8c-17-106.5,0-157.7,85.2-242.9c106.6-106.6,132.1-110.8,605.2-110.8h490.1v-230.2c0-200.3,17-242.9,110.8-319.7c127.9-102.3,183.3-110.8,328.2-42.6c132.1,59.7,200.3,204.6,200.3,422v170.5h2003.2h2003.2v-208.9c0-247.2,89.5-375.1,285.6-413.4c110.8-21.3,157.7-4.3,242.9,80.9c89.5,89.5,110.8,153.5,110.8,328.2v213.1h447.5c242.9,0,490.1,21.3,549.8,46.9c247.2,115.1,251.4,98.1-443.3,2459.2C7376.7-445.5,7086.9,564.6,7086.9,598.7c0,38.3,230.2,302.6,511.4,592.4l515.7,528.5l242.9-21.3c383.6-34.1,694.7,153.4,865.2,520c149.2,323.9,81,664.9-191.8,937.7c-349.5,345.2-839.6,349.5-1197.6,4.3c-260-247.2-328.2-554.1-213.1-941.9c21.3-68.2-59.7-170.5-358-464.6c-213.1-213.1-396.4-375.1-409.2-362.3c-12.8,12.8-242.9,788.5-515.7,1726.2C5936.1,4490,5821,4835.3,5735.8,4916.2c-102.3,93.8-119.3,93.8-1206.2,93.8C3447,5010,3425.7,5010,3319.2,4916.2z M5335.1,4191.7c25.6-76.7,255.7-869.5,515.7-1756l473.1-1619.6l-971.8-971.8l-971.8-971.7l-1108.1,8.5l-1108.1,12.8l771.4,2642.5c430.5,1453.4,788.5,2676.6,797,2719.2c21.3,63.9,93.8,72.5,788.5,72.5h767.2L5335.1,4191.7z M8570,2699.9c29.8-29.8,51.2-106.5,51.2-170.5c0-230.1-336.7-260-396.3-38.3C8177.9,2678.6,8438,2832.1,8570,2699.9z M6720.3-530.7c85.2-294.1,153.5-549.8,153.5-566.8c0-17.1-349.5-29.8-775.7-29.8h-780l596.7,596.7C6243-202.5,6520,48.9,6537,31.9C6554.1,14.8,6635-236.6,6720.3-530.7z M7325.5-2597.8c123.6-422,225.9-801.3,230.2-839.6c0-72.5-174.7-76.7-3051.7-76.7c-2425.1,0-3047.4,12.8-3030.4,55.4c8.5,25.6,123.6,409.2,247.2,848.2l230.2,801.3l2574.3-12.8l2570-8.5L7325.5-2597.8z"/><path
    d="M4167.3,3497c-127.9-127.9-136.4-272.8-17-421.9c76.7-98,115.1-110.8,353.7-110.8c294.1,0,426.2,63.9,468.8,234.4c29.8,115.1-29.8,264.3-140.6,349.5c-38.4,29.8-179,55.4-315.4,55.4C4312.2,3603.5,4252.6,3586.5,4167.3,3497z" /><path
    d="M4244,2444.2c-225.9-106.6-221.6-421.9,8.5-571.1c149.2-98,507.2-63.9,630.8,59.7c127.9,127.9,115.1,336.7-29.8,464.6C4725.7,2503.9,4418.8,2529.5,4244,2444.2z" /><path
    d="M4150.3,1233.8c-119.4-149.2-110.8-294.1,17-421.9c81-85.2,144.9-106.6,315.4-106.6c272.8,0,413.4,68.2,468.8,221.6c46.9,132.1,25.6,225.9-72.4,345.2c-51.2,55.4-132.1,72.5-353.8,72.5C4265.3,1344.6,4227,1331.8,4150.3,1233.8z" /><path
    d="M4167.3,129.9c-59.7-55.4-106.6-153.4-106.6-213.1c0-59.7,46.9-157.7,106.6-213.1c85.2-89.5,144.9-106.6,349.5-106.6c387.8,0,562.6,191.8,421.9,464.6c-81,149.2-140.7,174.7-434.7,174.7C4312.2,236.4,4252.6,219.4,4167.3,129.9z" /></g></g>
</svg>